<svg width="524" height="524" viewBox="0 0 40 40" fill="none" xmlns="http://www.w3.org/2000/svg">
  <defs>
    <linearGradient id="luxuryGrad" gradientUnits="objectBoundingBox" x1="0" y1="0" x2="1" y2="1">
      <stop offset="0%" stop-color="#F59E0B" />
      <stop offset="100%" stop-color="#7C3AED" />
    </linearGradient>
  </defs>
  {/* Thinner Metallic Silver Ring */}
  <circle cx="20" cy="20" r="16.5" stroke="#CBD5E1" stroke-width="1.8" />
  {/* Navigational Points: Borders only on outside edges */}
  <g fill="#CBD5E1">
    <path d="M18 4.2 L22 4.2 L20 0.2 Z" />
    <path d="M18 35.8 L22 35.8 L20 39.8 Z" />
    <path d="M35.8 18 L35.8 22 L39.8 20 Z" />
    <path d="M4.2 18 L4.2 22 L0.2 20 Z" />
  </g>
  <g stroke="#000000" stroke-width="0.8" stroke-linecap="round" stroke-linejoin="round" fill="none">
    <path d="M18 4.2 L20 0.2 L22 4.2" />
    <path d="M18 35.8 L20 39.8 L22 35.8" />
    <path d="M35.8 18 L39.8 20 L35.8 22" />
    <path d="M4.2 18 L0.2 20 L4.2 22" />
  </g>
  {/* Needle with Luxury Gradient */}
  <g transform="rotate(45 20 20)">
    <path d="M20 8 L27 20 L20 32 L13 20 Z" fill="url(#luxuryGrad)" />
    <circle cx="20" cy="20" r="1.3" fill="white" />
  </g>
</svg>
