<svg width="524" height="524" viewBox="0 0 40 40" fill="none" xmlns="http://www.w3.org/2000/svg">
  <defs>
    <linearGradient id="reelGradDownload" gradientUnits="objectBoundingBox" x1="0" y1="0" x2="1" y2="1">
      <stop offset="0" stop-color="#FB923C" />
      <stop offset="0.33" stop-color="#F26B7A" />
      <stop offset="0.66" stop-color="#8B5CF6" />
      <stop offset="1" stop-color="#D946EF" />
    </linearGradient>
    <radialGradient id="reelGlowDownload" cx="50%" cy="50%" r="50%" fx="50%" fy="50%">
      <stop offset="0%" stop-color="#F26B7A" stop-opacity="0.3" />
      <stop offset="100%" stop-color="#F26B7A" stop-opacity="0" />
    </radialGradient>
  </defs>
  
  <circle cx="20" cy="20" r="18" fill="url(#reelGlowDownload)" />

  {/* Reinforced Ring Design */}
  <circle cx="20" cy="20" r="16" stroke="white" stroke-width="2" stroke-opacity="0.3" />
  <path d="M 20 4 A 16 16 0 0 1 36 20" stroke="url(#reelGradDownload)" stroke-width="3.5" stroke-linecap="round" />
  
  <g transform="translate(20, 20)">
    <path d="M -5 -6 C -6.5 -6 -7.5 -5 -7.5 -4 L -7.5 4 C -7.5 5 -6.5 6 -5 6 C -3.5 6 6.5 2 7.5 1 C 8.5 0 8.5 -1 7.5 -2 C 6.5 -3 -3.5 -6 -5 -6 Z" fill="url(#reelGradDownload)" />
    <circle cx="0" cy="0" r="1.5" fill="white" />
  </g>
</svg>
